<?xml version="1.0" encoding="iso-8859-1"?>
<!--Source: https://www.svgrepo.com/svg/37754/squirrel -->
<!-- Generator: Adobe Illustrator 19.0.0, SVG Export Plug-In . SVG Version: 6.00 Build 0)  -->
<svg version="1.1" id="Layer_1" xmlns="http://www.w3.org/2000/svg" xmlns:xlink="http://www.w3.org/1999/xlink" x="0px" y="0px"
	 viewBox="0 0 473.931 473.931" style="enable-background:new 0 0 473.931 473.931;" xml:space="preserve">
<circle style="fill:#9F91E9;" cx="236.966" cy="236.966" r="236.966"/>
<polygon style="fill:#6F4D21;" points="168.45,201.479 144.316,225.486 99.965,214.713 89.997,217.647 85.772,225.4 90.281,231.866 
	148.552,254.578 197.554,234.073 "/>
<path style="fill:#AA7435;" d="M104.421,217.112c-2.092,11.663-14.758,23.779-27.307,21.53
	c-12.55-2.245-20.228-18.009-18.144-29.676c2.092-11.667,12.58-11.622,25.133-9.373S106.509,205.441,104.421,217.112z"/>
<path style="fill:#B9803D;" d="M77.114,238.642c-12.55-2.245-20.228-18.009-18.144-29.676c2.092-11.667,12.58-11.622,25.133-9.373
	S89.66,240.891,77.114,238.642z"/>
<path style="fill:#C28B4F;" d="M77.114,238.642c-12.55-2.245-20.228-18.009-18.144-29.676c2.75-15.36,25.133-9.373,25.133-9.373
	C73.761,214.919,77.114,238.642,77.114,238.642z"/>
<path style="fill:#BB996C;" d="M214.998,257.979c19.637,6.35,86.06,142.217,28.149,102.008
	c-19.427-13.485-41.62-36.497-66.244-73.885l-10.802-23.7C166.104,262.398,195.354,251.622,214.998,257.979z"/>
<g>
	<path style="fill:#805C26;" d="M187.72,162.426c0,0,25.294,6.421,49.889,32.546c0,0,19.547,1.613,39.191,7.962
		c19.637,6.35,87.437,49.657,57.608,152.929c0,0-33.35,44.332-91.262,4.123c-19.427-13.485-12.265-37.769-31.348-52.523
		c-19.079-14.75-45.769-45.032-45.769-45.032l-20.991-46.256L187.72,162.426z"/>
	<path style="fill:#805C26;" d="M391.291,138.43c0,0-61.66-19.536-78.584,27.487c-16.733,46.503,33.369,72.089,34.162,120.395
		c0.576,35.434-1.916,31.768-15.281,37.878c-27.614,12.606-54.248,49.788-54.248,49.788s150.722,30.084,137.053-85.017
		c-5.272-44.389-59.879-66.446-49.148-94.745c10.735-28.299,25.238-14.368,40.145-7.921
		C424.469,194.545,413.842,144.357,391.291,138.43z"/>
</g>
<path style="fill:#BB996C;" d="M358.322,185.415c-18.907,45.668,27.367,56.111,44.179,101.417
	c7.85,21.156,8.404,37.459,4.108,49.967l0.221,2.743c6.915-12.527,10.136-29.006,7.566-50.585
	c-5.272-44.388-59.879-66.446-49.148-94.745c10.735-28.299,25.238-14.368,40.145-7.921c7.02,3.042,10.017-1.833,9.878-9.508
	C415.268,176.783,369.97,157.285,358.322,185.415z"/>
<g>
	<polygon style="fill:#805C26;" points="159.68,218.796 135.549,242.803 91.198,232.03 81.226,234.971 77.009,242.717 
		81.518,249.186 139.785,271.895 188.787,251.394 	"/>
	<path style="fill:#805C26;" d="M250.223,277.508c-19.659-2.035-42.615,48.093-7.263,82.753c0,0-7.184,1.224-9.643,1.108
		c-2.458-0.112-7.76-1.676-7.76-1.676l-9.979,3.121l-1.871,8.726c0,0,20.565,7.124,38.035,8.239
		c17.47,1.115,57.885,3.753,69.63-19.644S275.259,280.104,250.223,277.508z"/>
</g>
<path style="fill:#765422;" d="M182.314,119.459c8.625-11.124,25.979-12.112,28.954-9.807c3.824,2.963,4.314,17.781-4.307,28.905
	c-8.614,11.132-16.187,10.44-22.432,5.605C178.287,139.324,173.696,130.584,182.314,119.459z"/>
<path style="fill:#805C26;" d="M155.141,210.74c-39.925-7.147-65.63-50.155-63.718-60.834c2.458-13.725,39.636-34.776,79.565-27.625
	c39.921,7.147,48.291,27.39,44.284,49.799C211.252,194.485,195.069,217.894,155.141,210.74z"/>
<path style="fill:#765422;" d="M92.627,157.386c-1.096-3.154-1.512-5.74-1.205-7.48c0.516-2.874,2.544-6.054,5.792-9.238
	C109.529,128.616,98.247,173.621,92.627,157.386z"/>
<path style="fill:#946F3B;" d="M154.55,160.735c-9.598-1.717-15.603-13.018-15.094-15.85c0.655-3.656,9.71-9.399,19.311-7.682
	c9.594,1.725,11.525,7.053,10.458,13.01C168.155,156.181,164.147,162.456,154.55,160.735z"/>
<path style="fill:#31312F;" d="M154.639,157.494c-7.772-1.399-12.771-9.766-12.396-11.839c0.479-2.672,7.712-6.769,15.483-5.377
	c7.764,1.388,9.396,5.328,8.614,9.691C165.558,154.329,162.411,158.879,154.639,157.494z"/>
<path style="fill:#1D1D1D;" d="M152.2,157.06c-7.768-1.396-4.688-18.608,3.083-17.22c7.764,1.388,9.396,5.328,8.614,9.691
	C163.118,153.895,159.968,158.449,152.2,157.06z"/>
<path style="fill:#805C26;" d="M169.427,112.605c5.366-14.032,22.791-20.404,26.544-18.971c4.819,1.848,9.901,16.83,4.535,30.862
	c-5.366,14.032-13.313,15.674-21.182,12.666C171.447,134.142,164.054,126.636,169.427,112.605z"/>
<g>
</g>
<g>
</g>
<g>
</g>
<g>
</g>
<g>
</g>
<g>
</g>
<g>
</g>
<g>
</g>
<g>
</g>
<g>
</g>
<g>
</g>
<g>
</g>
<g>
</g>
<g>
</g>
<g>
</g>
</svg>
